HIERARCHY
ROOT Hips
{
	OFFSET 0.000000 0.000000 0.000000
	CHANNELS 6 Xposition Yposition Zposition Zrotation Yrotation Xrotation 
	JOINT LeftUpLeg_virtual
	{
		OFFSET 0.000000 0.000000 0.000000
		CHANNELS 3 Zrotation Yrotation Xrotation
		JOINT LeftUpLeg
		{
			OFFSET 10.205400 -3.823500 0.155100
			CHANNELS 3 Zrotation Yrotation Xrotation
			JOINT LeftLeg
			{
				OFFSET 0.708757 -12.982077 0.567790
				CHANNELS 3 Zrotation Yrotation Xrotation
				JOINT LeftFoot
				{
					OFFSET -0.708756 -10.717838 -2.184338
					CHANNELS 3 Zrotation Yrotation Xrotation
					JOINT LeftToeBase
					{
						OFFSET 0.108149 -7.191104 7.560241
						CHANNELS 3 Zrotation Yrotation Xrotation
						End Site
						{
							OFFSET 0.000000 0.000000 0.000000
						}
					}
				}
			}
		}
	}
	JOINT RightUpLeg_virtual
	{
		OFFSET 0.000000 0.000000 0.000000
		CHANNELS 3 Zrotation Yrotation Xrotation
		JOINT RightUpLeg
		{
			OFFSET -10.205400 -3.823500 0.005500
			CHANNELS 3 Zrotation Yrotation Xrotation
			JOINT RightLeg
			{
				OFFSET -0.708756 -12.982134 0.610632
				CHANNELS 3 Zrotation Yrotation Xrotation
				JOINT RightFoot
				{
					OFFSET 0.708754 -10.717769 -1.945823
					CHANNELS 3 Zrotation Yrotation Xrotation
					JOINT RightToeBase
					{
						OFFSET -0.108140 -7.191069 7.372968
						CHANNELS 3 Zrotation Yrotation Xrotation
						End Site
						{
							OFFSET 0.000000 0.000000 0.000000
						}
					}
				}
			}
		}
	}
	JOINT Spine_virtual
	{
		OFFSET 0.000000 0.000000 0.000000
		CHANNELS 3 Zrotation Yrotation Xrotation
		JOINT Spine
		{
			OFFSET 0.000000 6.876099 0.125700
			CHANNELS 3 Zrotation Yrotation Xrotation
			JOINT Spine1
			{
				OFFSET 0.000000 8.022060 0.146608
				CHANNELS 3 Zrotation Yrotation Xrotation
				JOINT Spine2
				{
					OFFSET 0.000000 9.168068 0.167552
					CHANNELS 3 Zrotation Yrotation Xrotation
					JOINT Neck_virtual
					{
						OFFSET 0.000000 0.000000 0.000000
						CHANNELS 3 Zrotation Yrotation Xrotation
						JOINT Neck
						{
							OFFSET 0.000000 10.314075 0.188496
							CHANNELS 3 Zrotation Yrotation Xrotation
							JOINT Head
							{
								OFFSET 0.000000 7.643700 -2.377400
								CHANNELS 3 Zrotation Yrotation Xrotation
								End Site
								{
									OFFSET 0.000000 0.000000 0.000000
								}
							}
						}
					}
					JOINT LeftShoulder_virtual
					{
						OFFSET 0.000000 0.000000 0.000000
						CHANNELS 3 Zrotation Yrotation Xrotation
						JOINT LeftShoulder
						{
							OFFSET 4.392200 8.824978 0.174984
							CHANNELS 3 Zrotation Yrotation Xrotation
							JOINT LeftArm
							{
								OFFSET 8.771219 -2.981674 -0.026999
								CHANNELS 3 Zrotation Yrotation Xrotation
								JOINT LeftForeArm
								{
									OFFSET 8.512804 0.000000 -0.000000
									CHANNELS 3 Zrotation Yrotation Xrotation
									JOINT LeftHand
									{
										OFFSET 18.484802 0.000000 -0.000000
										CHANNELS 3 Zrotation Yrotation Xrotation
										End Site
										{
											OFFSET 0.000000 0.000000 0.000000
										}
									}
								}
							}
						}
					}
					JOINT RightShoulder_virtual
					{
						OFFSET 0.000000 0.000000 0.000000
						CHANNELS 3 Zrotation Yrotation Xrotation
						JOINT RightShoulder
						{
							OFFSET -4.392200 8.824993 0.141379
							CHANNELS 3 Zrotation Yrotation Xrotation
							JOINT RightArm
							{
								OFFSET -8.771282 -2.981682 -0.094208
								CHANNELS 3 Zrotation Yrotation Xrotation
								JOINT RightForeArm
								{
									OFFSET -8.494598 0.000000 0.000000
									CHANNELS 3 Zrotation Yrotation Xrotation
									JOINT RightHand
									{
										OFFSET -18.483803 0.000000 0.000001
										CHANNELS 3 Zrotation Yrotation Xrotation
										End Site
										{
											OFFSET 0.000000 0.000000 0.000000
										}
									}
								}
							}
						}
					}
				}
			}
		}
	}
}
MOTION
Frames: 14
Frame Time: 0.033333
2.413677 36.686989 -2.769055 179.996522 4.581101 -179.949994 -2.800771 -1.816629 10.367805 -6.877311 2.775892 -16.998389 8.976370 7.063968 13.735168 -8.498366 0.071479 11.634294 0.000000 0.000000 0.000000 2.184738 0.337417 8.680791 2.219080 -5.364409 -6.182631 -7.224758 -3.630504 11.553163 10.031818 7.699675 9.600627 0.000000 0.000000 0.000000 1.872572 1.561216 0.058973 -5.583554 1.390576 -4.128959 1.062185 -4.304987 3.415267 -0.007036 -0.024064 0.049174 0.681062 -2.812760 5.343109 2.018446 0.956975 0.408176 0.000000 0.000000 0.000000 2.080738 -1.686469 2.684879 3.798573 2.099314 -4.166435 -19.362017 22.807233 -28.711168 -5.286474 -24.967231 -7.237972 0.000000 0.000000 0.000000 -1.292071 -0.974429 2.118867 6.705105 -2.369819 -6.293572 30.680913 -30.153526 -46.357092 -2.909509 33.058385 -4.941838 0.000000 0.000000 0.000000 
2.412229 36.698196 -2.767503 -179.883018 4.507133 -179.918753 -2.800088 -1.862180 10.386834 -6.850567 3.070911 -17.027747 8.841496 7.171817 13.765853 -8.554845 0.030070 11.716469 0.000000 0.000000 0.000000 2.280125 0.325539 8.780832 2.539294 -5.724532 -6.088464 -6.952313 -4.249459 11.829219 10.333499 7.962007 9.172592 0.000000 0.000000 0.000000 1.960802 1.594163 0.067697 -5.531020 1.423708 -4.127350 1.115976 -4.291057 3.416663 -0.004046 -0.000728 0.035260 0.595895 -2.836536 5.380928 1.882042 0.800095 0.366728 0.000000 0.000000 0.000000 2.044530 -1.779391 2.722692 3.702440 1.971695 -4.181268 -19.262054 22.838440 -28.641749 -5.299413 -24.966510 -7.255233 0.000000 0.000000 0.000000 -1.313151 -1.071354 2.142316 6.684451 -2.527468 -6.319200 30.909195 -30.200276 -46.701302 -2.997005 33.041542 -5.073524 0.000000 0.000000 0.000000 
2.412439 36.698147 -2.758292 -179.964911 4.572278 -179.924654 -2.866244 -1.821028 10.392545 -6.868035 3.021150 -17.044098 8.871681 7.180877 13.739311 -8.550351 0.032551 11.751952 0.000000 0.000000 0.000000 2.203452 0.353641 8.763288 2.502636 -5.746167 -6.111824 -6.946122 -4.201803 11.860174 10.348995 7.965473 9.149055 0.000000 0.000000 0.000000 1.931961 1.573604 0.088836 -5.527479 1.415896 -4.113137 1.094301 -4.302058 3.404658 -0.042700 -0.014698 0.050782 0.697316 -2.854808 5.316726 1.963824 0.822447 0.420642 0.000000 0.000000 0.000000 2.114177 -1.729608 2.676114 3.709396 1.985424 -4.086059 -19.315319 22.847642 -28.567589 -5.220875 -24.926960 -7.120461 0.000000 0.000000 0.000000 -1.207354 -1.008505 2.109916 6.668558 -2.554437 -6.313503 31.387670 -30.353651 -47.499246 -2.997642 33.027643 -5.093180 0.000000 0.000000 0.000000 
2.412781 36.698692 -2.745858 -179.969174 4.642076 -179.924272 -2.865114 -1.779607 10.403792 -6.869539 2.979434 -17.067698 8.928002 7.183552 13.726880 -8.507149 0.059262 11.785246 0.000000 0.000000 0.000000 2.200054 0.349358 8.708984 2.436244 -5.592027 -6.150781 -6.975998 -4.237628 11.941271 10.316950 7.955642 9.042030 0.000000 0.000000 0.000000 1.936806 1.560329 0.136449 -5.510817 1.446473 -4.121859 1.101765 -4.274193 3.401660 -0.001095 -0.002399 0.048773 0.753498 -2.808078 5.287891 2.183791 0.931687 0.495682 0.000000 0.000000 0.000000 2.080255 -1.715083 2.655514 3.725303 1.969364 -4.136690 -19.232448 22.871764 -28.541359 -5.289776 -24.856351 -7.170467 0.000000 0.000000 0.000000 -1.241077 -1.015621 2.096354 6.674339 -2.663750 -6.358550 32.043932 -30.526643 -48.484026 -3.035650 33.000725 -5.219231 0.000000 0.000000 0.000000 
2.414641 36.699768 -2.726069 -179.968900 4.647479 -179.945814 -2.868517 -1.842186 10.419516 -6.875099 2.986911 -17.094999 8.926273 7.155316 13.742522 -8.467771 0.068418 11.787777 0.000000 0.000000 0.000000 2.198899 0.265449 8.685123 2.418040 -5.592138 -6.181883 -6.948301 -4.271353 11.975855 10.360709 7.983420 9.045575 0.000000 0.000000 0.000000 1.956005 1.524135 0.208890 -5.442353 1.455027 -4.116060 1.104638 -4.260739 3.369383 -0.005624 -0.006528 0.049526 0.759984 -2.828381 5.197091 2.274030 0.894282 0.613723 0.000000 0.000000 0.000000 2.093189 -1.698906 2.597196 3.742976 1.923650 -4.117636 -19.140082 22.881417 -28.389826 -5.276438 -24.818640 -7.098621 0.000000 0.000000 0.000000 -1.234063 -0.997588 2.026514 6.715203 -2.742742 -6.419507 32.794610 -30.691155 -49.525189 -3.043479 32.935111 -5.300757 0.000000 0.000000 0.000000 
2.417857 36.701649 -2.702809 -179.907729 4.729392 -179.948109 -2.852103 -1.811590 10.443654 -6.861891 3.080052 -17.150137 8.885077 7.164318 13.798031 -8.389028 0.090752 11.781398 0.000000 0.000000 0.000000 2.242897 0.241992 8.644969 2.383180 -5.474759 -6.211419 -6.951577 -4.396184 12.032322 10.384137 8.010113 9.018935 0.000000 0.000000 0.000000 1.973994 1.429906 0.290414 -5.347823 1.591929 -4.135087 1.119661 -4.121993 3.347685 0.021451 -0.084999 0.035774 0.732267 -2.701879 5.161142 2.370199 0.848022 0.766242 0.000000 0.000000 0.000000 2.024038 -1.703211 2.544199 3.759492 1.831435 -4.062354 -19.070153 22.883318 -28.225887 -5.240866 -24.758635 -7.058261 0.000000 0.000000 0.000000 -1.299793 -1.000358 1.969709 6.728407 -2.841673 -6.437130 33.657530 -30.854365 -50.684474 -3.043434 32.935329 -5.451219 0.000000 0.000000 0.000000 
2.419673 36.702736 -2.674124 -179.909983 4.723492 -179.888113 -2.855641 -1.921414 10.424296 -6.843940 3.125292 -17.256449 8.881946 7.141922 13.837994 -8.301360 0.121063 11.783099 0.000000 0.000000 0.000000 2.234028 0.132940 8.585878 2.371821 -5.470320 -6.299218 -6.913602 -4.446784 12.127395 10.434068 8.039180 9.027977 0.000000 0.000000 0.000000 1.966758 1.511426 0.320694 -5.236436 1.487446 -4.128778 1.116452 -4.203766 3.291545 0.030542 0.007930 0.039433 0.701138 -2.696062 5.083909 2.463322 0.799489 1.026133 0.000000 0.000000 0.000000 2.005938 -1.665304 2.531627 3.829330 1.727013 -4.071093 -18.965219 22.914171 -28.040046 -5.207778 -24.759682 -6.959326 0.000000 0.000000 0.000000 -1.339022 -0.936286 1.908926 6.793290 -2.872035 -6.364045 34.493842 -30.909738 -51.836874 -3.039975 32.950987 -5.585963 0.000000 0.000000 0.000000 
2.416326 36.703194 -2.645521 -179.898768 4.803467 -179.956729 -2.862267 -1.900324 10.450808 -6.845660 3.147637 -17.314229 8.869922 7.059275 13.895633 -8.213326 0.128465 11.787962 0.000000 0.000000 0.000000 2.223716 0.102133 8.580677 2.366646 -5.501089 -6.349304 -6.864702 -4.455210 12.178460 10.507906 8.074406 9.088456 0.000000 0.000000 0.000000 1.960232 1.500633 0.414027 -5.114610 1.485734 -4.099376 1.100591 -4.171975 3.293146 -0.014802 0.001526 0.025044 0.650218 -2.716333 5.037992 2.472381 0.710049 1.248169 0.000000 0.000000 0.000000 2.018400 -1.632001 2.383175 3.861012 1.621883 -4.021275 -18.865095 23.099145 -27.780287 -5.234891 -24.770779 -6.887670 0.000000 0.000000 0.000000 -1.322011 -0.882626 1.866276 6.897714 -2.911399 -6.394669 35.313888 -30.919355 -52.911911 -2.990656 32.971420 -5.679629 0.000000 0.000000 0.000000 
2.411531 36.701427 -2.611904 -179.878482 4.913123 -179.966646 -2.869784 -1.869956 10.456407 -6.841503 3.187713 -17.394607 8.841351 7.037453 13.984223 -8.102274 0.143262 11.780712 0.000000 0.000000 0.000000 2.226674 0.131260 8.571659 2.334385 -5.385180 -6.412135 -6.860840 -4.732192 12.275651 10.596871 8.163562 9.047578 0.000000 0.000000 0.000000 1.942230 1.483820 0.456432 -4.974210 1.451421 -4.071963 1.090543 -4.159703 3.247733 -0.034372 -0.020071 0.014962 0.621387 -2.641409 4.957943 2.505397 0.694160 1.582269 0.000000 0.000000 0.000000 1.996807 -1.545727 2.325782 3.908506 1.492880 -3.912507 -18.917319 23.285285 -27.575383 -5.152851 -24.821789 -6.644305 0.000000 0.000000 0.000000 -1.346656 -0.844351 1.841956 7.044678 -2.927876 -6.479748 35.986716 -30.869364 -53.818923 -2.871743 33.056972 -5.710580 0.000000 0.000000 0.000000 
2.405715 36.698456 -2.574140 -179.901869 4.957649 -179.974105 -2.915310 -1.876878 10.452375 -6.840256 3.177489 -17.468043 8.868429 7.036965 14.065701 -8.001214 0.145133 11.799168 0.000000 0.000000 0.000000 2.169224 0.050930 8.532423 2.280098 -5.355696 -6.504218 -6.855118 -4.698456 12.353622 10.623603 8.160999 9.006384 0.000000 0.000000 0.000000 1.874596 1.540511 0.491706 -4.837724 1.468556 -4.034847 1.087788 -4.085614 3.243008 0.005913 0.026940 0.053373 0.682904 -2.631846 4.849760 2.537363 0.695395 1.961384 0.000000 0.000000 0.000000 1.977708 -1.590769 2.284406 3.970503 1.202994 -3.970548 -19.106756 23.527739 -27.423495 -5.087206 -24.913808 -6.390396 0.000000 0.000000 0.000000 -1.359787 -0.909987 1.671533 7.261874 -3.030099 -6.343207 36.549538 -30.783796 -54.519625 -2.739194 33.241694 -5.696796 0.000000 0.000000 0.000000 
2.403328 36.697758 -2.532006 -179.960089 5.081894 -179.981195 -2.991808 -1.809223 10.406284 -6.828029 3.145227 -17.560867 8.893139 6.907950 14.091203 -7.897730 0.128058 11.796269 0.000000 0.000000 0.000000 2.114314 0.043229 8.453051 2.214694 -5.329465 -6.612048 -6.845442 -4.634134 12.405842 10.651630 8.143337 8.992678 0.000000 0.000000 0.000000 1.781663 1.545272 0.517299 -4.711686 1.406700 -4.010420 1.073778 -4.071707 3.250888 0.030350 0.010960 0.004940 0.782238 -2.443598 4.904510 2.577807 0.795760 2.284825 0.000000 0.000000 0.000000 1.982774 -1.510769 2.290923 3.948079 1.021856 -3.866011 -19.261717 23.881003 -27.231759 -4.982833 -25.134712 -6.203240 0.000000 0.000000 0.000000 -1.319812 -0.816570 1.735614 7.522940 -2.972027 -6.212939 37.052373 -30.550569 -55.004873 -2.690919 33.571869 -5.818674 0.000000 0.000000 0.000000 
2.404803 36.697506 -2.479214 -179.958600 5.232869 -179.937440 -3.013186 -1.737469 10.347183 -6.808178 3.131350 -17.669768 8.845500 6.749439 14.122583 -7.717593 0.147955 11.817729 0.000000 0.000000 0.000000 2.095672 0.132300 8.413873 2.207057 -5.303361 -6.668952 -6.788348 -4.674835 12.281632 10.736654 8.141337 9.140799 0.000000 0.000000 0.000000 1.732560 1.579869 0.491006 -4.546165 1.355387 -3.994576 1.084283 -4.032221 3.243866 0.034375 0.023757 0.000375 0.801435 -2.375341 4.893501 2.443568 0.769444 2.703651 0.000000 0.000000 0.000000 1.988880 -1.464214 2.305499 3.865052 0.764930 -3.950335 -19.409699 24.239933 -26.937107 -4.877048 -25.446517 -5.939397 0.000000 0.000000 0.000000 -1.296741 -0.801026 1.717357 7.834422 -2.947026 -6.042129 37.360168 -30.258073 -55.200353 -2.580533 34.015971 -5.821322 0.000000 0.000000 0.000000 
2.407603 36.696671 -2.414522 -179.903836 5.332271 -179.986222 -2.948616 -1.774806 10.334733 -6.717056 3.005374 -17.707489 8.640027 6.505557 14.198041 -7.391171 0.070288 11.742775 0.000000 0.000000 0.000000 2.091282 -0.094800 8.276013 2.246948 -5.395227 -6.779571 -6.710908 -4.773684 12.568999 10.882516 8.192266 9.144542 0.000000 0.000000 0.000000 1.709800 1.585406 0.516922 -4.352768 1.289044 -3.959191 1.124529 -4.001600 3.282966 -0.028929 0.022799 0.039193 0.703963 -2.532436 4.821483 2.204923 0.656830 3.139228 0.000000 0.000000 0.000000 2.017142 -1.469512 2.194645 3.653065 0.433884 -3.747637 -19.561430 24.675831 -26.496664 -4.690235 -25.876766 -5.723064 0.000000 0.000000 0.000000 -1.307349 -0.900554 1.694668 8.189351 -2.827286 -5.941083 37.504367 -29.875900 -55.069421 -2.446264 34.652452 -5.758281 0.000000 0.000000 0.000000 
2.407407 36.695862 -2.344070 -179.943492 5.470020 -179.987724 -3.028846 -1.653817 10.274461 -6.712131 2.986209 -17.764361 8.746205 6.638106 14.139602 -7.325697 0.125569 11.887943 0.000000 0.000000 0.000000 2.058094 0.018406 8.316510 2.197911 -5.257026 -6.785695 -6.699571 -4.687710 12.148636 10.883614 8.104191 9.317018 0.000000 0.000000 0.000000 1.631468 1.627185 0.515599 -4.212984 1.249957 -3.993304 1.080340 -3.958670 3.334542 0.029278 0.051901 0.013292 0.817774 -2.422953 4.855362 2.076434 0.669984 3.558400 0.000000 0.000000 0.000000 2.007564 -1.471578 2.282478 3.445994 0.130593 -3.892499 -19.826408 25.126774 -26.155564 -4.505113 -26.505755 -5.408746 0.000000 0.000000 0.000000 -1.266616 -0.841305 1.685200 8.565663 -2.828862 -5.588612 37.514513 -29.386879 -54.517341 -2.422347 35.513630 -5.830251 0.000000 0.000000 0.000000 
